<svg xmlns="http://www.w3.org/2000/svg" xmlns:xlink="http://www.w3.org/1999/xlink" width="32" height="32" class="lds-spinner" preserveAspectRatio="xMidYMid" viewBox="0 0 100 100"><rect width="6" height="12" x="47" y="24" fill="#fff" rx="0" ry="0"/><rect width="6" height="12" x="47" y="24" fill="#fff" opacity=".916" rx="0" ry="0" transform="rotate(30 50 50)"/><rect width="6" height="12" x="47" y="24" fill="#fff" opacity=".833" rx="0" ry="0" transform="rotate(60 50 50)"/><rect width="6" height="12" x="47" y="24" fill="#fff" opacity=".75" rx="0" ry="0" transform="rotate(90 50 50)"/><rect width="6" height="12" x="47" y="24" fill="#fff" opacity=".666" rx="0" ry="0" transform="rotate(120 50 50)"/><rect width="6" height="12" x="47" y="24" fill="#fff" opacity=".583" rx="0" ry="0" transform="rotate(150 50 50)"/><rect width="6" height="12" x="47" y="24" fill="#fff" opacity=".5" rx="0" ry="0" transform="rotate(180 50 50)"/><rect width="6" height="12" x="47" y="24" fill="#fff" opacity=".416" rx="0" ry="0" transform="rotate(210 50 50)"/><rect width="6" height="12" x="47" y="24" fill="#fff" opacity=".333" rx="0" ry="0" transform="rotate(240 50 50)"/><rect width="6" height="12" x="47" y="24" fill="#fff" opacity=".25" rx="0" ry="0" transform="rotate(270 50 50)"/><rect width="6" height="12" x="47" y="24" fill="#fff" opacity=".166" rx="0" ry="0" transform="rotate(300 50 50)"/><rect width="6" height="12" x="47" y="24" fill="#fff" opacity=".083" rx="0" ry="0" transform="rotate(330 50 50)"/></svg>