<svg xmlns="http://www.w3.org/2000/svg" xmlns:xlink="http://www.w3.org/1999/xlink" id="Layer_1" width="526.97" height="394.83" data-name="Layer 1" viewBox="0 0 526.97 394.83"><defs><radialGradient id="radial-gradient" cx="201.54" cy="-68.32" r="242.29" gradientTransform="translate(0 362)" gradientUnits="userSpaceOnUse"><stop offset=".26" stop-color="#cdcdd4" stop-opacity="0"/><stop offset=".4" stop-color="#cdcdd4" stop-opacity=".02"/><stop offset=".55" stop-color="#cdcdd4" stop-opacity=".08"/><stop offset=".69" stop-color="#cdcdd4" stop-opacity=".18"/><stop offset=".72" stop-color="#cdcdd4" stop-opacity=".2"/></radialGradient><radialGradient id="radial-gradient-2" cx="328.9" cy="-61.83" r="309.06" gradientTransform="translate(0 362)" gradientUnits="userSpaceOnUse"><stop offset=".4" stop-color="#cdcdd4" stop-opacity="0"/><stop offset=".58" stop-color="#cdcdd4" stop-opacity=".02"/><stop offset=".77" stop-color="#cdcdd4" stop-opacity=".08"/><stop offset=".96" stop-color="#cdcdd4" stop-opacity=".18"/><stop offset="1" stop-color="#cdcdd4" stop-opacity=".2"/></radialGradient><radialGradient id="radial-gradient-3" cx="185.56" cy="-36.79" r="355.96" gradientTransform="translate(0 362)" gradientUnits="userSpaceOnUse"><stop offset=".27" stop-color="#cdcdd4" stop-opacity="0"/><stop offset=".46" stop-color="#cdcdd4" stop-opacity=".02"/><stop offset=".66" stop-color="#cdcdd4" stop-opacity=".08"/><stop offset=".86" stop-color="#cdcdd4" stop-opacity=".18"/><stop offset=".9" stop-color="#cdcdd4" stop-opacity=".2"/></radialGradient><linearGradient id="linear-gradient" x1="71.25" x2="307.08" y1="-78.65" y2="-314.48" gradientTransform="translate(0 362)" gradientUnits="userSpaceOnUse"><stop offset="0" stop-color="#0090ed"/><stop offset=".27" stop-color="#2a88f1"/><stop offset=".86" stop-color="#9275fc"/><stop offset="1" stop-color="#ab71ff"/></linearGradient><linearGradient id="linear-gradient-2" x1="8.79" x2="426.64" y1="50.95" y2="-366.9" gradientTransform="translate(0 362)" gradientUnits="userSpaceOnUse"><stop offset=".43" stop-color="#00b3f4"/><stop offset=".61" stop-color="#00bbf6"/><stop offset=".89" stop-color="#00d2fc"/><stop offset="1" stop-color="#0df"/></linearGradient><linearGradient id="linear-gradient-3" x1="185.35" x2="421.18" y1="-53.41" y2="-289.25" gradientTransform="translate(0 362)" gradientUnits="userSpaceOnUse"><stop offset=".22" stop-color="#b833e1"/><stop offset=".91" stop-color="#ff4f5e"/></linearGradient><linearGradient id="linear-gradient-4" x1="118.57" x2="354.4" y1="56.2" y2="-179.63" gradientTransform="translate(0 362)" gradientUnits="userSpaceOnUse"><stop offset="0" stop-color="#ff7139"/><stop offset="1" stop-color="#ffa436"/></linearGradient><linearGradient id="linear-gradient-5" x1="323.34" x2="391.23" y1="-30.63" y2="-98.52" gradientTransform="translate(0 362)" gradientUnits="userSpaceOnUse"><stop offset=".28" stop-color="#7542e5"/><stop offset=".42" stop-color="#824deb"/><stop offset=".79" stop-color="#a067fa"/><stop offset="1" stop-color="#ab71ff"/></linearGradient></defs><title>Integrate-Web-Search</title><path fill="url(#radial-gradient)" d="M166.88,155.23a22.46,22.46,0,0,1-22.36,22.46H54.62a17.17,17.17,0,0,1,0-34.33,16.86,16.86,0,0,1,4.12.52A17.7,17.7,0,0,1,86,125.3a29.75,29.75,0,0,1,58.54,7.48A22.44,22.44,0,0,1,166.88,155.23Z"/><circle cx="263.52" cy="197.28" r="162.45" fill="url(#radial-gradient-2)"/><path fill="url(#radial-gradient-3)" d="M463.76,93.7a25.75,25.75,0,0,0-6.18.75,26.36,26.36,0,0,0,.69-6,26.71,26.71,0,0,0-41.77-22,44.85,44.85,0,0,0-88.23,11.28,33.69,33.69,0,1,0,0,67.38H463.76a25.72,25.72,0,0,0,1-51.43h-1Z"/><rect width="297.55" height="48.25" x="54.69" y="127.01" fill="url(#linear-gradient)" rx="5.4"/><path fill="#f9f9fa" d="M98.59,163.7,88.24,153.36a12.91,12.91,0,1,0-3,3L95.58,166.7a2.15,2.15,0,0,0,3-3Zm-20.83-9.21a8.58,8.58,0,1,1,8.58-8.58,8.58,8.58,0,0,1-8.58,8.58Z"/><path fill="#0df" d="M348,85H166a13.65,13.65,0,0,0-13.65,13.65V229.54A13.65,13.65,0,0,0,166,243.19H352.57a9.09,9.09,0,0,0,9.1-9.08v0h0V98.65A13.65,13.65,0,0,0,348,85Z"/><path fill="url(#linear-gradient-2)" d="M347.31,85h-182a13.67,13.67,0,0,0-13.64,13.65V229.54a13.67,13.67,0,0,0,13.64,13.65H351.86a9.11,9.11,0,0,0,9.09-9.1V98.65A13.67,13.67,0,0,0,347.31,85Zm4.55,18.2H160.77V98.65a4.55,4.55,0,0,1,4.55-4.55h182a4.55,4.55,0,0,1,4.55,4.55Z"/><rect width="297.55" height="48.25" x="168.79" y="152.24" fill="url(#linear-gradient-3)" rx="5.4"/><path fill="#f9f9fa" d="M212.69,188.94l-10.34-10.35a12.94,12.94,0,1,0-3,3L209.66,192a2.14,2.14,0,0,0,3-3Zm-20.82-9.21a8.58,8.58,0,1,1,8.58-8.58,8.58,8.58,0,0,1-8.58,8.58Z"/><rect width="297.55" height="48.25" x="102.01" y="261.86" fill="url(#linear-gradient-4)" rx="5.4"/><path fill="#f9f9fa" d="M145.9,298.55l-10.34-10.34a12.91,12.91,0,1,0-3,3l10.34,10.35a2.15,2.15,0,0,0,3-3Zm-20.82-9.21a8.58,8.58,0,1,1,8.58-8.58h0A8.58,8.58,0,0,1,125.08,289.34Z"/><path fill="url(#linear-gradient-5)" d="M413.26,342.11l-38.48-38.47a48,48,0,1,0-11.28,11.28L402,353.39a8,8,0,0,0,11.28-11.28Zm-77.45-34.25a31.92,31.92,0,1,1,31.91-31.93h0A31.92,31.92,0,0,1,335.81,307.86Z"/></svg>